<svg width="242" height="222" viewBox="0 0 242 222" fill="none" xmlns="http://www.w3.org/2000/svg">
<g id="freepik--Device--inject-63">
<path id="Vector" d="M150.921 195.77V175.45H91.0806V195.77C91.0709 202.389 88.8303 208.812 84.7206 214L82.1006 217.3H159.901L157.281 214C153.171 208.812 150.93 202.389 150.921 195.77Z" fill="white" stroke="#2E353A" stroke-linecap="round" stroke-linejoin="round"/>
<path id="Vector_2" d="M87.4004 210H154.6C152.188 205.645 150.922 200.749 150.92 195.77V175.45H91.0804V195.77C91.0792 200.749 89.8129 205.645 87.4004 210Z" fill="#D4E6FC"/>
<path id="Vector_3" d="M232.77 1.47021H9.22024C4.53686 1.47021 0.740234 5.26684 0.740234 9.95021V173.38C0.740234 178.064 4.53686 181.86 9.22024 181.86H232.77C237.454 181.86 241.25 178.064 241.25 173.38V9.95021C241.25 5.26684 237.454 1.47021 232.77 1.47021Z" fill="#2E353A" stroke="#2E353A" stroke-linecap="round" stroke-linejoin="round"/>
<path id="Vector_4" d="M0.740234 153.82H241.26V173.37C241.26 175.619 240.367 177.776 238.777 179.367C237.186 180.957 235.029 181.85 232.78 181.85H9.23023C6.9812 181.85 4.82428 180.957 3.23397 179.367C1.64366 177.776 0.750237 175.619 0.750237 173.37V153.82H0.740234Z" fill="white" stroke="#2E353A" stroke-linecap="round" stroke-linejoin="round"/>
<path id="Vector_5" d="M229.16 12.7002H12.8398V140.14H229.16V12.7002Z" fill="white" stroke="#2E353A" stroke-linecap="round" stroke-linejoin="round"/>
<path id="Vector_6" d="M125.441 167.84C125.441 166.962 125.18 166.104 124.692 165.374C124.204 164.643 123.511 164.074 122.7 163.738C121.888 163.402 120.996 163.314 120.134 163.486C119.273 163.657 118.482 164.08 117.861 164.701C117.24 165.322 116.817 166.113 116.646 166.974C116.475 167.835 116.562 168.728 116.899 169.54C117.235 170.351 117.804 171.044 118.534 171.532C119.264 172.02 120.122 172.28 121.001 172.28C122.178 172.28 123.307 171.813 124.14 170.98C124.973 170.147 125.441 169.018 125.441 167.84Z" fill="#2E353A" stroke="#2E353A" stroke-linecap="round" stroke-linejoin="round"/>
<path id="Vector_7" d="M159.911 217.34H82.1006V220.97H159.911V217.34Z" fill="white" stroke="#2E353A" stroke-linecap="round" stroke-linejoin="round"/>
<path id="Vector_8" d="M227.13 21.6802H14.54V32.8502H227.13V21.6802Z" fill="white" stroke="#2E353A" stroke-linecap="round" stroke-linejoin="round"/>
<path id="Vector_9" d="M49.62 32.8502L47.0701 25.9502H14.54V32.8502V42.0002V134.71H227.13V32.8502H49.62Z" fill="#D4E6FC" stroke="#2E353A" stroke-linecap="round" stroke-linejoin="round"/>
<path id="Vector_10" d="M71.7598 83.3604H171.44" stroke="#2E353A" stroke-width="2" stroke-linecap="round" stroke-linejoin="round"/>
<path id="Vector_11" d="M71.7598 93.1602H171.44" stroke="#2E353A" stroke-width="2" stroke-linecap="round" stroke-linejoin="round"/>
<path id="Vector_12" d="M71.7598 102.96H171.44" stroke="#2E353A" stroke-width="2" stroke-linecap="round" stroke-linejoin="round"/>
<path id="Vector_13" d="M71.7598 112.77H171.44" stroke="#2E353A" stroke-width="2" stroke-linecap="round" stroke-linejoin="round"/>
<path id="Vector_14" d="M166.17 57.2303H75.84C74.9102 57.2316 73.9893 57.0498 73.1298 56.6952C72.2704 56.3406 71.4891 55.8202 70.8308 55.1637C70.1724 54.5072 69.6498 53.7274 69.2928 52.8689C68.9357 52.0105 68.7513 51.0901 68.75 50.1603C68.7487 49.2306 68.9305 48.3096 69.2851 47.4502C69.6397 46.5907 70.1601 45.8094 70.8166 45.1511C71.4731 44.4927 72.2529 43.9701 73.1114 43.6131C73.9698 43.2561 74.8903 43.0716 75.82 43.0703H166.17C167.101 43.069 168.024 43.2515 168.885 43.6073C169.746 43.9632 170.528 44.4854 171.186 45.144C171.845 45.8026 172.367 46.5847 172.723 47.4455C173.079 48.3063 173.261 49.2289 173.26 50.1603C173.259 51.0901 173.074 52.0105 172.717 52.8689C172.36 53.7274 171.838 54.5072 171.179 55.1637C170.521 55.8202 169.74 56.3406 168.88 56.6952C168.021 57.0498 167.1 57.2316 166.17 57.2303Z" fill="white" stroke="#2E353A" stroke-linecap="round" stroke-linejoin="round"/>
<path id="Vector_15" d="M166.17 57.2303H153.83V43.0503H166.17C167.102 43.049 168.024 43.2315 168.885 43.5873C169.746 43.9431 170.528 44.4653 171.186 45.124C171.845 45.7826 172.367 46.5647 172.723 47.4255C173.079 48.2863 173.261 49.2089 173.26 50.1403C173.261 51.0717 173.079 51.9943 172.723 52.8551C172.367 53.7159 171.845 54.498 171.186 55.1566C170.528 55.8153 169.746 56.3375 168.885 56.6933C168.024 57.0491 167.102 57.2316 166.17 57.2303Z" fill="#2E353A" stroke="#2E353A" stroke-linecap="round" stroke-linejoin="round"/>
<path id="Vector_16" d="M163.42 44.8504C162.833 44.2999 162.095 43.9361 161.301 43.8049C160.506 43.6737 159.691 43.7811 158.957 44.1134C158.224 44.4457 157.606 44.9881 157.181 45.6719C156.756 46.3557 156.543 47.1502 156.57 47.9549C156.596 48.7596 156.861 49.5383 157.33 50.1926C157.799 50.8468 158.452 51.3472 159.206 51.6304C159.959 51.9136 160.78 51.9669 161.564 51.7836C162.348 51.6002 163.06 51.1885 163.61 50.6004C163.976 50.2124 164.263 49.7557 164.452 49.2568C164.641 48.7578 164.73 48.2264 164.713 47.693C164.697 47.1596 164.575 46.6347 164.354 46.1486C164.134 45.6625 163.82 45.2247 163.43 44.8604L163.42 44.8504ZM163.02 50.0504C162.578 50.5192 162.008 50.8466 161.38 50.9915C160.753 51.1363 160.096 51.0921 159.494 50.8642C158.892 50.6364 158.37 50.2353 157.996 49.7114C157.621 49.1876 157.41 48.5645 157.389 47.9208C157.368 47.2771 157.538 46.6416 157.878 46.0946C158.218 45.5475 158.712 45.1134 159.299 44.847C159.885 44.5806 160.537 44.4938 161.173 44.5976C161.808 44.7015 162.399 44.9912 162.87 45.4304C163.502 46.0233 163.873 46.843 163.901 47.7093C163.929 48.5757 163.612 49.4177 163.02 50.0504Z" fill="white"/>
<path id="Vector_17" d="M166.48 52.0801C166.391 51.993 166.278 51.9335 166.156 51.9086C166.033 51.8838 165.906 51.8947 165.79 51.9401L164.32 50.5601C164.245 50.4868 164.145 50.4458 164.04 50.4458C163.935 50.4458 163.835 50.4868 163.76 50.5601L163.63 50.7001C163.558 50.7777 163.519 50.8795 163.519 50.9851C163.519 51.0908 163.558 51.1925 163.63 51.2701L165.08 52.6301C165.037 52.7539 165.03 52.8873 165.06 53.0148C165.091 53.1423 165.156 53.2586 165.25 53.3501L167.75 55.8001C167.915 55.9638 168.138 56.0556 168.37 56.0556C168.602 56.0556 168.825 55.9638 168.99 55.8001C169.154 55.6353 169.246 55.4124 169.246 55.1801C169.246 54.9478 169.154 54.725 168.99 54.5601L166.48 52.0801Z" fill="white"/>
</g>
</svg>
