<svg width="85" height="225" viewBox="0 0 85 225" fill="none" xmlns="http://www.w3.org/2000/svg">
<g id="freepik--Plants--inject-2">
<path id="Vector" d="M30.9779 173.78C30.9779 173.78 -7.51447 106.224 1.37185 88.9939C10.2582 71.7637 32.9486 102.744 32.9486 102.744C32.9486 102.744 13.2142 39.735 24.0713 12.2082C34.9283 -15.3186 53.6773 12.2082 54.6627 31.6894C55.648 51.1706 50.7122 84.3926 50.7122 84.3926C50.7122 84.3926 58.6131 15.6886 77.3621 36.2727C96.1111 56.8567 53.6773 125.633 53.6773 125.633C53.6773 125.633 82.298 109.596 81.3036 130.216C80.3092 150.837 46.7707 169.17 46.7707 169.17" fill="#D4E6FC"/>
<path id="Vector_2" d="M31.3029 161.178C31.3029 161.178 -4.31472 127.947 13.0421 113.058C30.3989 98.1695 39.5293 129.095 39.5293 129.095C39.5293 129.095 20.3464 34.0036 51.3988 30.5593C82.4512 27.1151 59.6161 113.049 59.6161 113.049C59.6161 113.049 86.1033 76.3921 84.2773 106.224C82.4512 136.056 43.1814 161.223 43.1814 161.223" stroke="#263238" stroke-miterlimit="10"/>
<path id="Vector_3" d="M48.7959 155.131L24.7314 129.05" stroke="#263238" stroke-miterlimit="10"/>
<path id="Vector_4" d="M43.7871 157.138L50.3049 80.9033" stroke="#263238" stroke-miterlimit="10"/>
<path id="Vector_5" d="M42.7842 151.614L64.3446 123.029" stroke="#263238" stroke-miterlimit="10"/>
<path id="Vector_6" d="M73.9722 146.298H7.39258L14.0551 224.829H67.3097L73.9722 146.298Z" fill="#263238"/>
</g>
</svg>
