<svg width="209" height="194" viewBox="0 0 209 194" fill="none" xmlns="http://www.w3.org/2000/svg">
<g id="freepik--piggy-bank--inject-2">
<path id="Vector" d="M56.8037 23.2293C48.1472 18.982 39.199 15.3568 30.0272 12.3813C16.8107 8.3133 1.21674 12.0378 0.873224 16.4403C0.529704 20.8427 2.88011 18.8268 5.96275 23.5999C9.04539 28.3731 7.65323 39.5284 12.0647 49.6984C16.4763 59.8684 29.6837 64.9489 29.6837 64.9489L56.8037 23.2293Z" fill="#D4E6FC" stroke="#263238" stroke-linecap="round" stroke-linejoin="round"/>
<path id="Vector_2" opacity="0.3" d="M47.9899 33.0648C47.9899 33.0648 27.6499 20.1828 15.7895 15.7713C3.92897 11.3598 3.25098 17.8053 3.25098 17.8053C5.20223 18.5215 6.87673 19.837 8.03457 21.5632C9.1924 23.2894 9.77416 25.3377 9.69649 27.4148C9.69649 35.0265 13.5023 50.7923 22.7503 54.0467C31.9982 57.3011 47.9899 33.0648 47.9899 33.0648Z" fill="black"/>
<path id="Vector_3" d="M193.123 47.4586C198.439 45.4393 200.991 39.175 198.822 33.4669C196.654 27.7589 190.587 24.7686 185.271 26.788C179.955 28.8073 177.403 35.0716 179.572 40.7797C181.74 46.4877 187.807 49.478 193.123 47.4586Z" fill="#D4E6FC" stroke="#263238" stroke-linecap="round" stroke-linejoin="round"/>
<path id="Vector_4" d="M47.3838 155.421L58.7923 189.647C59.1017 190.574 59.6952 191.381 60.4887 191.952C61.2821 192.523 62.2352 192.83 63.2128 192.829H80.9945C81.9042 192.83 82.7943 192.565 83.5544 192.065C84.3145 191.565 84.9112 190.853 85.2704 190.017L93.2256 171.558" fill="#D4E6FC"/>
<g id="Group">
<path id="Vector_5" opacity="0.3" d="M53.1064 155.421L62.5442 189.647C62.7228 190.506 63.1787 191.283 63.8418 191.858C64.5049 192.433 65.3385 192.774 66.2144 192.829H80.9587C81.7685 192.787 82.5451 192.494 83.1803 191.99C83.8155 191.486 84.2777 190.797 84.5024 190.017L91.1016 171.558" fill="black"/>
</g>
<path id="Vector_6" d="M47.3838 155.421L58.7923 189.647C59.1017 190.574 59.6952 191.381 60.4887 191.952C61.2821 192.523 62.2352 192.83 63.2128 192.829H80.9945C81.9042 192.83 82.7943 192.565 83.5544 192.065C84.3145 191.565 84.9112 190.853 85.2704 190.017L93.2256 171.558" stroke="#263238" stroke-linecap="round" stroke-linejoin="round"/>
<g id="Vector_7">
<path d="M133.192 155.421L121.792 189.647C121.483 190.574 120.889 191.381 120.096 191.952C119.302 192.523 118.349 192.83 117.372 192.829H99.6081C98.6984 192.83 97.8083 192.565 97.0482 192.065C96.2881 191.565 95.6914 190.853 95.3322 190.017L87.377 171.558" fill="#263238"/>
<path d="M133.192 155.421L121.792 189.647C121.483 190.574 120.889 191.381 120.096 191.952C119.302 192.523 118.349 192.83 117.372 192.829H99.6081C98.6984 192.83 97.8083 192.565 97.0482 192.065C96.2881 191.565 95.6914 190.853 95.3322 190.017L87.377 171.558" stroke="#263238" stroke-linecap="round" stroke-linejoin="round"/>
</g>
<path id="Vector_8" d="M170.97 155.421L159.561 189.647C159.252 190.574 158.658 191.381 157.865 191.952C157.071 192.523 156.118 192.83 155.141 192.829H137.359C136.449 192.83 135.559 192.565 134.799 192.065C134.039 191.565 133.442 190.853 133.083 190.017L125.128 171.558" fill="#D4E6FC"/>
<g id="Group_2">
<path id="Vector_9" opacity="0.3" d="M162.888 155.421L155.086 189.647C154.652 191.545 153.441 192.829 152.067 192.829H139.908C138.642 192.829 137.494 191.726 136.988 190.017L129.431 171.937" fill="black"/>
</g>
<path id="Vector_10" d="M170.97 155.421L159.561 189.647C159.252 190.574 158.658 191.381 157.865 191.952C157.071 192.523 156.118 192.83 155.141 192.829H137.359C136.449 192.83 135.559 192.565 134.799 192.065C134.039 191.565 133.442 190.853 133.083 190.017L125.128 171.558" stroke="#263238" stroke-linecap="round" stroke-linejoin="round"/>
<path id="Vector_11" d="M110.004 177.94C164.01 177.94 207.79 138.236 207.79 89.2576C207.79 40.2797 164.01 0.575195 110.004 0.575195C55.9989 0.575195 12.2188 40.2797 12.2188 89.2576C12.2188 138.236 55.9989 177.94 110.004 177.94Z" fill="#D4E6FC"/>
<g id="Group_3">
<path id="Vector_12" opacity="0.3" d="M177.353 28.6626C183.087 40.0347 186.075 52.5929 186.076 65.3288C186.076 114.308 142.295 154.011 88.2904 154.011C68.1933 154.113 48.4947 148.406 31.5645 137.576C48.6139 160.457 77.4786 175.544 110.212 175.544C162.644 175.544 205.132 137.025 205.132 89.5018C205.078 65.7175 194.465 44.2295 177.353 28.6626Z" fill="black"/>
</g>
<path id="Vector_13" d="M110.004 177.94C164.01 177.94 207.79 138.236 207.79 89.2576C207.79 40.2797 164.01 0.575195 110.004 0.575195C55.9989 0.575195 12.2188 40.2797 12.2188 89.2576C12.2188 138.236 55.9989 177.94 110.004 177.94Z" stroke="#263238" stroke-linecap="round" stroke-linejoin="round"/>
<path id="Vector_14" d="M199.564 97.2129C197.43 115.076 189.195 131.285 176.792 144.085" stroke="#D4E6FC" stroke-width="2" stroke-linecap="round" stroke-linejoin="round"/>
<path id="Vector_15" d="M197.945 69.7041C199.388 75.6869 200.116 81.8196 200.115 87.9739" stroke="#D4E6FC" stroke-width="2" stroke-linecap="round" stroke-linejoin="round"/>
<path id="Vector_16" d="M85.7588 6.10767C93.8161 4.22405 102.064 3.27762 110.339 3.28718C115.636 3.28613 120.927 3.67287 126.168 4.4443" stroke="#263238" stroke-width="4" stroke-linecap="round" stroke-linejoin="round"/>
<g id="Vector_17">
<path d="M129.187 68.0136C129.187 68.0136 138.679 61.5681 139.022 49.7076C139.366 37.8471 123.763 20.5626 111.224 13.4391C98.6858 6.31561 89.5282 7.68065 89.1938 12.7611C88.8593 17.8416 84.4478 23.6091 82.7573 33.4356C81.0668 43.2621 80.3798 57.8436 93.6053 62.5896" fill="#D4E6FC"/>
<path d="M129.187 68.0136C129.187 68.0136 138.679 61.5681 139.022 49.7076C139.366 37.8471 123.763 20.5626 111.224 13.4391C98.6858 6.31561 89.5282 7.68065 89.1938 12.7611C88.8593 17.8416 84.4478 23.6091 82.7573 33.4356C81.0668 43.2621 80.3798 57.8436 93.6053 62.5896" stroke="#263238" stroke-linecap="round" stroke-linejoin="round"/>
</g>
<path id="Vector_18" opacity="0.3" d="M108.766 64.208L110.709 64.4972C119.044 65.6996 121.973 60.2575 121.729 52.0853C121.394 40.5593 106.144 16.1513 99.6984 12.7613C93.2529 9.3713 91.2279 14.1173 91.2279 14.1173C91.2279 14.1173 92.1319 14.723 88.9589 25.2546C87.4944 30.1181 82.0433 47.0772 87.4402 54.5984C92.2133 61.2429 101.082 63.0599 108.766 64.208Z" fill="black"/>
<path id="Vector_19" opacity="0.3" d="M135.768 52.5282H135.642C135.523 52.5126 135.409 52.4738 135.306 52.4139C135.203 52.3541 135.112 52.2744 135.04 52.1794C134.968 52.0844 134.915 51.9761 134.885 51.8606C134.855 51.7452 134.848 51.6249 134.864 51.5067C134.962 50.8115 135.019 50.1112 135.036 49.4094C135.217 43.0814 130.055 33.9962 121.566 25.6161C121.481 25.5324 121.414 25.4328 121.367 25.323C121.321 25.2132 121.297 25.0953 121.296 24.9761C121.295 24.8569 121.318 24.7388 121.363 24.6283C121.407 24.5179 121.474 24.4173 121.557 24.3324C121.641 24.2475 121.741 24.18 121.85 24.1336C121.96 24.0872 122.078 24.0629 122.197 24.062C122.316 24.0612 122.435 24.0838 122.545 24.1287C122.656 24.1735 122.756 24.2397 122.841 24.3234C131.809 33.1826 137.043 42.5752 136.844 49.4546C136.824 50.2227 136.764 50.9891 136.663 51.7508C136.633 51.9664 136.525 52.1638 136.361 52.3067C136.196 52.4495 135.986 52.5282 135.768 52.5282Z" fill="black"/>
<path id="Vector_20" opacity="0.3" d="M130.904 63.4304C130.733 63.431 130.565 63.383 130.42 63.2921C130.276 63.2011 130.159 63.071 130.086 62.9166C130.012 62.7623 129.983 62.5902 130.003 62.4203C130.023 62.2505 130.091 62.0897 130.199 61.9569C131.689 60.1317 132.879 58.0811 133.725 55.882C133.81 55.6578 133.98 55.4767 134.199 55.3783C134.418 55.28 134.667 55.2726 134.891 55.3577C135.115 55.4428 135.296 55.6135 135.394 55.8322C135.493 56.0509 135.5 56.2997 135.415 56.5239C134.502 58.9038 133.214 61.1225 131.6 63.0959C131.516 63.1996 131.41 63.2834 131.29 63.3413C131.169 63.3991 131.038 63.4295 130.904 63.4304Z" fill="black"/>
<path id="Vector_21" opacity="0.3" d="M65.0728 106.416C67.7463 95.701 58.4274 84.1486 44.2583 80.6132C30.0892 77.0778 16.4355 82.8982 13.7619 93.6135C11.0883 104.329 20.4072 115.881 34.5763 119.417C48.7454 122.952 62.3992 117.131 65.0728 106.416Z" fill="black"/>
<path id="Vector_22" d="M63.8013 104.47C66.4749 93.7552 57.1559 82.2028 42.9868 78.6674C28.8177 75.132 15.164 80.9524 12.4904 91.6677C9.81679 102.383 19.1357 113.935 33.3049 117.471C47.474 121.006 61.1277 115.186 63.8013 104.47Z" fill="#D4E6FC" stroke="#263238" stroke-linecap="round" stroke-linejoin="round"/>
<path id="Vector_23" d="M30.1627 94.835C30.3254 97.2578 29.3943 99.3008 28.0925 99.355C26.7908 99.4093 25.5884 97.5471 25.3805 95.1243C25.1726 92.7016 26.1489 90.6495 27.4597 90.6043C28.7705 90.5591 30 92.4033 30.1627 94.835Z" stroke="#263238" stroke-linecap="round" stroke-linejoin="round"/>
<path id="Vector_24" d="M48.0797 99.3283C48.2424 101.76 47.3113 103.794 46.0095 103.848C44.7078 103.903 43.5054 102.04 43.2975 99.6085C43.0896 97.1768 44.0659 95.1428 45.3767 95.0886C46.6875 95.0343 47.8898 96.8966 48.0797 99.3283Z" stroke="#263238" stroke-linecap="round" stroke-linejoin="round"/>
<path id="Vector_25" d="M77.6498 105.611C77.459 107.351 77.0521 109.061 76.4385 110.7C71.2495 124.721 52.4644 130.787 33.9053 124.749" stroke="#263238" stroke-width="3" stroke-linecap="round" stroke-linejoin="round"/>
<path id="Vector_26" d="M74.6211 104.282H80.3796" stroke="#263238" stroke-width="3" stroke-linecap="round" stroke-linejoin="round"/>
<path id="Vector_27" d="M37.9373 66.7482C37.3045 69.3789 35.6864 71.2682 34.3213 70.9247C32.9563 70.5812 32.3596 68.2127 33.0015 65.5549C33.6433 62.8972 35.2525 61.0349 36.6175 61.3694C37.9825 61.7039 38.5792 64.1085 37.9373 66.7482Z" fill="#263238" stroke="#263238" stroke-linecap="round" stroke-linejoin="round"/>
<path id="Vector_28" d="M54.6088 70.3826C55.2452 67.7422 54.6554 65.3352 53.2915 65.0065C51.9276 64.6778 50.3061 66.5518 49.6698 69.1923C49.0334 71.8327 49.6232 74.2396 50.9871 74.5683C52.351 74.897 53.9725 73.023 54.6088 70.3826Z" fill="#263238" stroke="#263238" stroke-linecap="round" stroke-linejoin="round"/>
<path id="Vector_29" d="M79.5029 166.432L89.4469 190.027C89.8039 190.871 90.4015 191.591 91.1651 192.097C91.9287 192.603 92.8246 192.874 93.7409 192.874H111.821C112.729 192.873 113.617 192.607 114.376 192.109C115.135 191.612 115.733 190.904 116.097 190.072L126.945 165.004H126.475" fill="#D4E6FC"/>
<g id="Group_4">
<path id="Vector_30" opacity="0.3" d="M100.512 163.422C94.7803 163.422 88.1088 164.172 82.7119 162.924L92.005 189.981C92.2263 190.767 92.6877 191.464 93.3248 191.975C93.9618 192.485 94.7426 192.784 95.5578 192.829H110.456C111.261 192.784 112.033 192.491 112.664 191.989C113.296 191.487 113.756 190.801 113.981 190.026L122.976 162.427L119.36 162.924C107.888 164.172 108.187 163.422 100.512 163.422Z" fill="black"/>
</g>
<path id="Vector_31" d="M79.5029 166.432L89.4469 190.027C89.8039 190.871 90.4015 191.591 91.1651 192.097C91.9287 192.603 92.8246 192.874 93.7409 192.874H111.821C112.729 192.873 113.617 192.607 114.376 192.109C115.135 191.612 115.733 190.904 116.097 190.072L126.945 165.004H126.475" stroke="#263238" stroke-linecap="round" stroke-linejoin="round"/>
</g>
</svg>
