<svg width="86" height="76" viewBox="0 0 86 76" fill="none" xmlns="http://www.w3.org/2000/svg">
<g id="freepik--Bubble--inject-31">
<path id="Vector" d="M61.437 51.0314H20.667V18.2886" stroke="#263238" stroke-linecap="round" stroke-linejoin="round"/>
<path id="Vector_2" d="M27.9686 45.0791H24.707V51.0315H27.9686V45.0791Z" stroke="#263238" stroke-linecap="round" stroke-linejoin="round"/>
<path id="Vector_3" d="M34.746 43.1943H31.4844V51.0312H34.746V43.1943Z" stroke="#263238" stroke-linecap="round" stroke-linejoin="round"/>
<path id="Vector_4" d="M41.5223 40.0508H38.2607V51.0315H41.5223V40.0508Z" stroke="#263238" stroke-linecap="round" stroke-linejoin="round"/>
<path id="Vector_5" d="M48.3085 36.9067H45.0469V51.0313H48.3085V36.9067Z" stroke="#263238" stroke-linecap="round" stroke-linejoin="round"/>
<path id="Vector_6" d="M55.0858 32.4673H51.8242V51.0312H55.0858V32.4673Z" stroke="#263238" stroke-linecap="round" stroke-linejoin="round"/>
<path id="Vector_7" d="M20.667 45.2874C20.667 45.2874 46.8051 39.7155 59.3079 23.1538" stroke="#263238" stroke-linecap="round" stroke-linejoin="round"/>
<path id="Vector_8" d="M57.668 22.6376L60.2048 21.9399V24.7304" stroke="#263238" stroke-linecap="round" stroke-linejoin="round"/>
<path id="Vector_9" d="M51.8424 2.03519C50.6828 1.79963 49.514 1.60031 48.3271 1.44629" stroke="#263238" stroke-linecap="round" stroke-linejoin="round"/>
<path id="Vector_10" d="M62.1889 69.3236C71.8831 74.3066 85.2919 74.6962 85.2919 74.6962C78.5422 70.0665 73.9035 63.2715 71.557 59.2307C78.7234 53.0518 83.1447 44.6532 83.1447 35.3848C83.1447 21.07 72.626 8.80276 57.668 3.6748" stroke="#263238" stroke-linecap="round" stroke-linejoin="round"/>
<path id="Vector_11" d="M41.876 69.7403C47.4866 69.7514 53.0565 68.7889 58.338 66.8955" stroke="#263238" stroke-linecap="round" stroke-linejoin="round"/>
<path id="Vector_12" d="M5.08301 51.0312C10.9448 60.5443 21.989 67.4933 35.1169 69.2781" stroke="#263238" stroke-linecap="round" stroke-linejoin="round"/>
<path id="Vector_13" d="M0.5625 35.3848C0.563721 37.209 0.736627 39.029 1.07892 40.8208" stroke="#263238" stroke-linecap="round" stroke-linejoin="round"/>
<path id="Vector_14" d="M41.8761 1.0293C23.5477 1.0293 8.00078 10.9953 2.61914 24.7303" stroke="#263238" stroke-linecap="round" stroke-linejoin="round"/>
</g>
</svg>
