<svg width="186" height="201" viewBox="0 0 186 201" fill="none" xmlns="http://www.w3.org/2000/svg">
<g id="freepik--Hand--inject-2">
<path id="Vector" d="M184.616 0.901612L134.616 72.9414C134.616 72.9414 130.34 83.1385 125.078 90.705C119.817 98.2715 105.064 105.838 105.064 105.838C105.064 105.838 103.753 119.976 99.4771 124.912C95.2012 129.848 85.9894 126.892 85.9894 126.892C85.9894 126.892 82.0389 131.168 77.763 133.139C73.4871 135.109 60.3339 127.877 60.3339 127.877C60.3339 127.877 72.1673 140.705 73.8125 144.981C75.4578 149.257 78.423 152.873 73.1617 156.824C67.9004 160.774 61.9702 155.178 61.9702 155.178C61.9702 155.178 64.6098 163.73 57.0434 165.375C49.4769 167.021 41.2324 150.568 37.9418 144.981C34.6513 139.394 25.1141 118.331 23.4778 117.346C21.8416 116.36 19.5364 111.099 22.827 106.163C26.1175 101.228 49.4588 69.6508 52.0894 67.3999C54.7201 65.1489 105.064 53.2071 105.064 53.2071L124.147 0.576172" fill="white"/>
<g id="Group">
<path id="Vector_2" opacity="0.2" d="M129.471 73.728C129.471 73.728 124.047 90 118.171 93.164C112.295 96.328 78.8473 104.916 65.7393 103.108C52.6313 101.3 45.3993 96.328 45.3993 96.328C45.3993 96.328 38.1673 105.82 35.0033 108.984C32.8001 111.03 30.1782 112.572 27.3193 113.504C27.3193 113.504 43.0489 153.018 54.358 165.249C55.2366 165.52 56.1699 165.564 57.07 165.376C64.6365 163.73 61.9968 155.178 61.9968 155.178C61.9968 155.178 67.918 160.765 73.1883 156.824C78.4586 152.882 75.4844 149.257 73.8392 144.981C72.1939 140.705 60.3153 127.878 60.3153 127.878C60.3153 127.878 73.4685 135.11 77.7445 133.139C82.0204 131.168 85.9709 126.883 85.9709 126.883C85.9709 126.883 95.1826 129.848 99.4585 124.912C103.734 119.977 105.045 105.838 105.045 105.838C105.045 105.838 119.844 98.2716 125.114 90.7051C130.384 83.1386 134.651 72.9415 134.651 72.9415L155.253 43.2632L129.471 73.728Z" fill="black"/>
</g>
<path id="Vector_3" d="M184.616 0.901612L134.616 72.9414C134.616 72.9414 130.34 83.1385 125.078 90.705C119.817 98.2715 105.064 105.838 105.064 105.838C105.064 105.838 103.753 119.976 99.4771 124.912C95.2012 129.848 85.9894 126.892 85.9894 126.892C85.9894 126.892 82.0389 131.168 77.763 133.139C73.4871 135.109 60.3339 127.877 60.3339 127.877C60.3339 127.877 72.1673 140.705 73.8125 144.981C75.4578 149.257 78.423 152.873 73.1617 156.824C67.9004 160.774 61.9702 155.178 61.9702 155.178C61.9702 155.178 64.6098 163.73 57.0434 165.375C49.4769 167.021 41.2324 150.568 37.9418 144.981C34.6513 139.394 25.1141 118.331 23.4778 117.346C21.8416 116.36 19.5364 111.099 22.827 106.163C26.1175 101.228 49.4588 69.6508 52.0894 67.3999C54.7201 65.1489 105.064 53.2071 105.064 53.2071L124.147 0.576172" stroke="#263238" stroke-linecap="round" stroke-linejoin="round"/>
<path id="Vector_4" d="M13.6055 193.002L14.9163 197.938L35.3105 193.002L54.3939 143.002L41.8916 138.726L13.6055 193.002Z" fill="white" stroke="#263238" stroke-linecap="round" stroke-linejoin="round"/>
<path id="Vector_5" d="M19.8525 126.558L48.1386 137.089L34.3255 199.583L1.10352 189.386L19.8525 126.558Z" fill="white" stroke="#263238" stroke-linecap="round" stroke-linejoin="round"/>
<path id="Vector_6" d="M2.21582 185.652L31.6953 194.321L44.523 138.725L18.6957 130.427L2.21582 185.652Z" fill="#D4E6FC" stroke="#263238" stroke-linecap="round" stroke-linejoin="round"/>
<path id="Vector_7" d="M18.5778 144.176C17.2949 143.837 15.9541 143.775 14.6454 143.996L6.94336 169.805C8.05813 170.891 9.42951 171.678 10.93 172.092C16.9687 173.755 23.586 168.847 25.7014 161.135C27.8167 153.424 24.6075 145.831 18.5778 144.176Z" fill="white" stroke="#263238" stroke-linecap="round" stroke-linejoin="round"/>
<path id="Vector_8" d="M17.4838 148.452C17.445 148.435 17.4133 148.405 17.3936 148.367C17.3739 148.329 17.3675 148.286 17.3753 148.244L17.7188 146.906C17.7398 146.85 17.7476 146.79 17.7419 146.73C17.7361 146.67 17.7168 146.612 17.6855 146.561C17.6542 146.509 17.6116 146.466 17.561 146.433C17.5104 146.401 17.4531 146.38 17.3934 146.373L15.956 146.03C15.8997 146.007 15.8389 145.997 15.7783 146.002C15.7178 146.007 15.6592 146.026 15.6074 146.058C15.5555 146.09 15.5118 146.133 15.4797 146.184C15.4476 146.236 15.4281 146.294 15.4227 146.355L15.1424 147.738C15.1319 147.779 15.107 147.816 15.0723 147.841C15.0375 147.865 14.9952 147.877 14.9526 147.874C14.4627 147.824 13.969 147.824 13.4791 147.874L10.8484 156.706C12.9005 158.839 16.1007 159.906 15.6758 161.696C15.4317 162.708 14.5096 163.504 12.8915 163.142C12.5531 163.097 12.2284 162.979 11.9396 162.797C11.6507 162.616 11.4044 162.374 11.2174 162.088C11.0305 161.802 10.9072 161.48 10.856 161.142C10.8048 160.805 10.8269 160.46 10.9207 160.132L11.0021 159.77C11.0473 159.571 10.9298 159.409 10.6495 159.345L10.0981 159.21L8.53418 164.435C9.16231 165.006 9.89636 165.448 10.6947 165.737C10.7353 165.755 10.7683 165.786 10.7882 165.826C10.808 165.865 10.8133 165.911 10.8032 165.954L10.4778 167.102C10.4528 167.158 10.4418 167.219 10.4458 167.281C10.4498 167.342 10.4686 167.401 10.5006 167.454C10.5326 167.506 10.5769 167.55 10.6296 167.582C10.6823 167.613 10.7419 167.632 10.8032 167.635L12.2948 167.997C12.3473 168.025 12.4054 168.04 12.4647 168.042C12.5241 168.044 12.5831 168.032 12.6372 168.008C12.6913 167.983 12.7391 167.947 12.7769 167.901C12.8147 167.855 12.8415 167.801 12.8553 167.744L13.0994 166.605C13.1128 166.562 13.1394 166.526 13.1751 166.5C13.2109 166.474 13.254 166.46 13.2983 166.46C16.4803 166.794 18.6409 165.23 19.3099 162.446C19.8342 160.222 19.0839 158.333 16.7606 156.552C14.6362 154.943 12.3943 154.147 12.783 152.502C13.0542 151.363 14.0938 150.839 15.495 151.173C15.8418 151.229 16.1723 151.359 16.464 151.555C16.7556 151.751 17.0013 152.007 17.1843 152.307C17.3673 152.607 17.4832 152.943 17.5239 153.292C17.5647 153.641 17.5294 153.994 17.4205 154.328L17.3572 154.581C17.3572 154.735 17.4476 154.871 17.7279 154.943L20.3766 155.576C20.433 155.597 20.4934 155.605 20.5532 155.599C20.6131 155.593 20.6709 155.574 20.7222 155.542C20.7735 155.511 20.8171 155.469 20.8496 155.418C20.8821 155.367 20.9028 155.31 20.91 155.25L21.1088 154.41C21.7145 151.761 20.4399 149.51 17.4838 148.452Z" fill="#263238"/>
<path id="Vector_9" d="M43.2024 93.6612C43.2024 93.6612 47.1529 99.5824 47.8128 104.853C48.3735 109.345 47.3228 113.89 44.8477 117.68C42.877 120.637 40.9063 123.267 39.261 127.878C37.6157 132.488 37.2903 139.06 34.9851 142.342C32.6799 145.623 31.3691 148.914 34.6506 151.879C37.9321 154.844 46.493 154.509 51.1034 145.958C55.7138 137.406 58.6699 128.194 61.6259 124.903C64.582 121.613 74.1283 114.055 74.1283 114.055C74.1283 114.055 100.109 110.439 105.045 105.838C109.981 101.237 114.257 88.7344 114.257 88.7344" fill="white"/>
<g id="Group_2">
<path id="Vector_10" opacity="0.2" d="M112.295 93.1641C112.295 93.1641 98.2831 102.204 87.4351 104.916C76.5871 107.628 69.8071 107.628 65.7391 113.052C61.6711 118.476 57.6031 135.652 52.1791 138.816C46.7551 141.98 45.8511 130.68 38.1671 132.94L37.914 133.03C37.1637 136.556 36.5038 140.172 34.9851 142.351C32.6799 145.641 31.3691 148.923 34.6506 151.888C37.9321 154.853 46.493 154.519 51.1034 145.967C55.7138 137.415 58.6699 128.203 61.6259 124.913C64.582 121.622 74.1283 114.065 74.1283 114.065C74.1283 114.065 100.109 110.449 105.045 105.847C108.028 103.063 110.767 97.4038 112.467 93.3539L112.295 93.1641Z" fill="black"/>
</g>
<path id="Vector_11" d="M43.2024 93.6612C43.2024 93.6612 47.1529 99.5824 47.8128 104.853C48.3735 109.345 47.3228 113.89 44.8477 117.68C42.877 120.637 40.9063 123.267 39.261 127.878C37.6157 132.488 37.2903 139.06 34.9851 142.342C32.6799 145.623 31.3691 148.914 34.6506 151.879C37.9321 154.844 46.493 154.509 51.1034 145.958C55.7138 137.406 58.6699 128.194 61.6259 124.903C64.582 121.613 74.1283 114.055 74.1283 114.055C74.1283 114.055 100.109 110.439 105.045 105.838C109.981 101.237 114.257 88.7344 114.257 88.7344" stroke="#263238" stroke-linecap="round" stroke-linejoin="round"/>
<path id="Vector_12" d="M33.0059 110.114C33.0059 110.114 41.5667 114.715 47.8134 109.454" stroke="#263238" stroke-linecap="round" stroke-linejoin="round"/>
<path id="Vector_13" d="M61.952 155.178L54.3945 140.705" stroke="#263238" stroke-linecap="round" stroke-linejoin="round"/>
<path id="Vector_14" d="M85.9707 126.892C85.9707 126.892 91.8919 121.956 91.5574 111.099" stroke="#263238" stroke-linecap="round" stroke-linejoin="round"/>
</g>
</svg>
