<svg width="113" height="92" viewBox="0 0 113 92" fill="none" xmlns="http://www.w3.org/2000/svg">
<g id="Group">
<path id="Vector" opacity="0.2" d="M112.011 91.6006H0.799805C0.799805 91.6006 8.52799 37.6755 19.4906 10.3867C19.4906 10.3867 19.554 6.12855 20.1248 0.80127C25.2437 3.26559 31.9934 6.8171 33.8779 9.25424C37.0398 13.3312 25.8145 19.2837 25.8145 19.2837C26.832 20.3855 28.0865 21.2418 29.4833 21.788C30.8802 22.3342 32.3828 22.5559 33.8779 22.4365C38.8518 21.9382 58.4214 17.4717 58.4214 17.4717C58.4214 17.4717 51.11 21.9382 51.9979 25.1092C52.8858 28.2802 60.922 38.6086 65.2889 41.1454C69.6558 43.6822 56.4101 38.6086 56.4101 38.6086C56.4101 38.6086 71.4678 62.9438 80.5278 67.809C89.5878 72.6742 108.097 57.6165 105.443 56.3662C102.788 55.116 92.025 40.4659 93.9819 38.0016C95.1054 36.5792 101.764 40.321 109.103 42.1873C110.426 65.8702 112.011 91.6006 112.011 91.6006Z" fill="black"/>
</g>
</svg>
